<svg xmlns="http://www.w3.org/2000/svg" width="24" height="24" viewBox="0 0 24 24" fill="none" stroke="currentColor" stroke-width="2" stroke-linecap="round" stroke-linejoin="round" class="icon icon-tabler icons-tabler-outline icon-tabler-coffee">
<style>
  :root {
    --theme-icon-color: #C09973;
    --theme-icon-selected-color: #F7E4CF;
  }
  path:not([stroke="none"]), circle:not([stroke="none"]), rect:not([stroke="none"]), line, polyline, polygon {
    stroke: var(--theme-icon-color, #C09973);
  }
  .selected path:not([stroke="none"]), .selected circle, .selected rect, .selected line, .selected polyline, .selected polygon {
    stroke: var(--theme-icon-selected-color, #F7E4CF);
  }
</style>
<path stroke="none" d="M0 0h24v24H0z" fill="none" /><path d="M3 14c.83 .642 2.077 1.017 3.5 1c1.423 .017 2.67 -.358 3.5 -1c.83 -.642 2.077 -1.017 3.5 -1c1.423 -.017 2.67 .358 3.5 1" /><path d="M8 3a2.4 2.4 0 0 0 -1 2a2.4 2.4 0 0 0 1 2" /><path d="M12 3a2.4 2.4 0 0 0 -1 2a2.4 2.4 0 0 0 1 2" /><path d="M3 10h14v5a6 6 0 0 1 -6 6h-2a6 6 0 0 1 -6 -6v-5" /><path d="M16.746 16.726a3 3 0 1 0 .252 -5.555" /></svg>